<svg xmlns="http://www.w3.org/2000/svg" width="840" height="440" viewBox="0 0 840 440"><rect width="100%" height="100%" fill="white"/><g font-family="Arial" fill="#243247"><text x="30" y="30" font-size="19">Actual forward: AV output error vs dense</text><path d="M85,345.0h705" stroke="#e2e8f0"/><text x="77" y="349.0" text-anchor="end" font-size="12">0</text><path d="M85,289.0h705" stroke="#e2e8f0"/><text x="77" y="293.0" text-anchor="end" font-size="12">0.003824</text><path d="M85,233.0h705" stroke="#e2e8f0"/><text x="77" y="237.0" text-anchor="end" font-size="12">0.007647</text><path d="M85,176.99999999999997h705" stroke="#e2e8f0"/><text x="77" y="180.99999999999997" text-anchor="end" font-size="12">0.01147</text><path d="M85,121.0h705" stroke="#e2e8f0"/><text x="77" y="125.0" text-anchor="end" font-size="12">0.01529</text><path d="M85,65.0h705" stroke="#e2e8f0"/><text x="77" y="69.0" text-anchor="end" font-size="12">0.01912</text><text x="85.0" y="367" text-anchor="middle" font-size="12">3</text><text x="226.0" y="367" text-anchor="middle" font-size="12">4</text><text x="367.0" y="367" text-anchor="middle" font-size="12">5</text><text x="508.0" y="367" text-anchor="middle" font-size="12">6</text><text x="649.0" y="367" text-anchor="middle" font-size="12">7</text><text x="790.0" y="367" text-anchor="middle" font-size="12">8</text><polyline points="85.00,241.58 226.00,98.71 367.00,147.83 508.00,174.84 649.00,219.26 790.00,185.26" fill="none" stroke="#334155" stroke-width="2.5"/><circle cx="85.0" cy="241.58274753475297" r="3.5" fill="#334155"/><circle cx="226.0" cy="98.70705221344562" r="3.5" fill="#334155"/><circle cx="367.0" cy="147.82947607909145" r="3.5" fill="#334155"/><circle cx="508.0" cy="174.84263268263575" r="3.5" fill="#334155"/><circle cx="649.0" cy="219.25789714483574" r="3.5" fill="#334155"/><circle cx="790.0" cy="185.26165359911263" r="3.5" fill="#334155"/><text x="85" y="410" fill="#334155" font-size="14">full_sparse</text><polyline points="85.00,238.91 226.00,85.74 367.00,129.27 508.00,156.77 649.00,197.43 790.00,158.18" fill="none" stroke="#dc4b40" stroke-width="2.5"/><circle cx="85.0" cy="238.9101942294036" r="3.5" fill="#dc4b40"/><circle cx="226.0" cy="85.74074074074076" r="3.5" fill="#dc4b40"/><circle cx="367.0" cy="129.27009957979058" r="3.5" fill="#dc4b40"/><circle cx="508.0" cy="156.7716006372606" r="3.5" fill="#dc4b40"/><circle cx="649.0" cy="197.42831036069495" r="3.5" fill="#dc4b40"/><circle cx="790.0" cy="158.1839996110885" r="3.5" fill="#dc4b40"/><text x="305" y="410" fill="#dc4b40" font-size="14">full_corrected</text><text x="437.5" y="390" text-anchor="middle">Block index (zero-based)</text><text x="22" y="205.0" transform="rotate(-90 22 205.0)" text-anchor="middle">Mean squared error</text></g></svg>